<?xml version="1.0" standalone="no"?>
<!DOCTYPE svg PUBLIC "-//W3C//DTD SVG 20010904//EN"
 "http://www.w3.org/TR/2001/REC-SVG-20010904/DTD/svg10.dtd">
<svg version="1.0" xmlns="http://www.w3.org/2000/svg"
 width="279.000000pt" height="84.000000pt" viewBox="0 0 279.000000 84.000000"
 preserveAspectRatio="xMidYMid meet">
<metadata>
Created by potrace 1.13, written by Peter Selinger 2001-2015
</metadata>
<g transform="translate(0.000000,84.000000) scale(0.100000,-0.100000)"
fill="#000000" stroke="none">
<path d="M2314 730 c-39 -15 -74 -68 -74 -111 0 -113 159 -104 190 11 21 77
-41 131 -116 100z m56 -65 c0 -19 -36 -55 -54 -55 -22 0 -38 27 -31 50 13 40
85 44 85 5z"/>
<path d="M1576 653 c-8 -10 -50 -61 -94 -113 -43 -52 -84 -105 -91 -117 -6
-13 -16 -23 -21 -23 -12 0 -52 79 -75 148 -18 57 -54 84 -85 64 -8 -5 -27 -53
-42 -107 -22 -81 -34 -105 -65 -137 -39 -40 -100 -78 -127 -78 -50 0 -58 69
-26 232 11 57 20 109 20 116 0 14 -46 17 -55 3 -3 -6 -14 -58 -25 -117 -21
-116 -28 -128 -98 -174 -84 -55 -118 -36 -107 60 9 75 -1 90 -60 90 -52 0 -97
-28 -147 -94 -41 -55 -114 -106 -196 -136 -64 -24 -90 -25 -120 -4 -46 32 -16
161 56 237 31 34 112 77 142 77 l21 0 -20 -26 c-24 -30 -18 -54 14 -54 26 0
65 46 65 77 -2 94 -156 69 -269 -45 -117 -117 -135 -270 -36 -316 53 -25 118
-16 213 31 42 21 79 39 82 41 3 1 11 -11 17 -28 9 -25 17 -30 45 -30 38 0 92
30 121 67 l19 24 15 -21 c34 -48 99 -42 170 16 23 19 44 34 47 34 3 0 6 -12 6
-26 0 -40 50 -84 97 -84 38 0 101 30 116 56 13 23 26 16 29 -17 4 -39 30 -59
56 -43 12 8 19 30 23 85 6 68 31 184 42 196 3 2 14 -21 26 -51 22 -59 63 -130
81 -141 26 -16 59 11 130 105 41 55 76 96 78 90 2 -5 -1 -41 -7 -79 -26 -167
-7 -252 52 -237 15 3 27 13 27 20 0 9 7 12 20 9 39 -10 90 8 130 46 38 36 41
37 51 19 14 -26 46 -36 86 -27 l34 7 -7 -76 c-10 -116 -10 -114 24 -110 27 3
27 4 35 96 5 62 14 107 28 134 25 48 111 138 133 138 27 0 30 -45 6 -88 -22
-38 -32 -46 -92 -71 -39 -15 -39 -51 1 -51 40 0 90 37 129 95 30 44 33 56 29
99 -5 52 -17 66 -58 66 -27 0 -95 -40 -116 -69 -43 -59 -43 -59 -40 -17 1 28
-3 41 -16 50 -27 17 -47 -17 -47 -81 0 -41 -4 -54 -19 -63 -57 -30 -90 7 -74
82 15 70 3 88 -56 88 -40 0 -57 -6 -92 -33 -56 -42 -102 -128 -97 -180 4 -47
-9 -49 -18 -1 -8 41 15 283 32 341 9 31 -30 51 -50 26z m-939 -209 c10 -26
-38 -114 -77 -140 -40 -27 -70 -31 -70 -9 0 31 28 82 67 123 42 44 69 53 80
26z m1171 -12 c9 -62 -115 -187 -142 -144 -11 19 21 89 61 130 45 47 76 53 81
14z"/>
<path d="M2504 608 c-5 -7 -15 -44 -24 -83 l-17 -70 -41 -3 c-51 -4 -75 -34
-42 -52 11 -6 31 -8 45 -4 29 7 29 8 10 -71 -20 -80 -19 -101 5 -125 22 -22
29 -24 50 -10 12 7 12 12 1 34 -12 22 -11 36 5 103 l19 78 75 12 c41 7 85 17
98 22 26 12 32 47 6 37 -10 -4 -50 -9 -90 -13 -85 -7 -85 -6 -59 82 9 27 13
55 11 62 -7 17 -42 17 -52 1z"/>
<path d="M2232 250 c-21 -34 10 -54 48 -30 12 7 12 12 2 22 -9 9 -12 9 -12 -5
0 -9 -7 -17 -16 -17 -12 0 -15 6 -10 25 8 30 5 31 -12 5z"/>
<path d="M2094 175 c-3 -7 -4 -34 -2 -61 3 -46 5 -49 33 -52 40 -4 71 19 60
44 -5 10 -9 30 -9 44 -1 21 -7 26 -39 31 -27 4 -40 2 -43 -6z m54 -22 c-4 -22
-22 -20 -26 1 -2 10 3 16 13 16 10 0 15 -7 13 -17z m10 -56 c2 -12 -3 -17 -17
-17 -15 0 -21 6 -21 21 0 25 33 22 38 -4z"/>
<path d="M2316 163 c-2 -10 -2 -36 2 -58 6 -33 12 -40 32 -43 23 -2 24 -1 8
11 -10 8 -18 24 -18 35 0 12 8 26 18 31 16 10 16 10 0 11 -10 0 -18 7 -18 15
0 21 -18 19 -24 -2z"/>
<path d="M2233 149 c-26 -9 -32 -56 -11 -77 14 -14 68 -16 68 -2 0 6 -11 10
-24 10 -14 0 -28 5 -31 10 -4 6 6 10 23 10 36 0 44 8 32 30 -13 23 -30 29 -57
19z m37 -19 c0 -5 -9 -10 -21 -10 -11 0 -17 5 -14 10 3 6 13 10 21 10 8 0 14
-4 14 -10z"/>
<path d="M2400 150 c-12 -8 -11 -10 6 -10 34 0 36 -13 3 -27 -20 -8 -29 -18
-27 -30 5 -25 39 -30 36 -6 -2 10 2 19 7 20 6 2 10 -5 10 -14 0 -9 6 -18 13
-21 8 -2 12 10 12 42 0 25 -4 46 -9 46 -5 0 -15 2 -23 5 -7 3 -20 0 -28 -5z"/>
</g>
</svg>
